<svg width="159" height="154" viewBox="0 0 159 154" fill="none" xmlns="http://www.w3.org/2000/svg">
<path d="M37.0049 127.071C34.6459 127.071 33.0344 125.963 32.0982 125.036C30.6109 123.561 29.8014 121.553 29.8734 119.523C30.1465 112.057 29.861 101.233 26.9408 92.1372C24.7681 85.4568 20.8175 80.2369 15.7321 77.0397C20.8175 73.8449 24.7681 68.6321 26.9334 61.9685C29.8635 52.8462 30.149 42.0228 29.8759 34.5468C29.8063 32.5265 30.6158 30.5181 32.1007 29.0434C33.0344 28.1166 34.6459 27.0088 37.0049 27.0088H122.076C124.435 27.0088 126.047 28.1166 126.983 29.0434C128.47 30.5181 129.28 32.5265 129.208 34.5563C128.934 42.0228 129.22 52.8462 132.14 61.9423C134.313 68.6226 138.266 73.8425 143.351 77.0397C138.266 80.2346 134.315 85.4473 132.15 92.111C129.22 101.233 128.934 112.057 129.208 119.533C129.277 121.553 128.468 123.561 126.983 125.036C126.047 125.963 124.435 127.071 122.076 127.071H37.0049ZM91.2434 74.9789C97.841 73.9593 103.023 68.0913 103.023 61.5182C103.023 52.1553 95.3132 46.0682 83.583 46.0682H57.1925V107.987H83.7345C97.7889 107.987 106.256 101.391 106.256 90.4766C106.256 82.231 100.215 76.2893 91.2409 75.3434L91.2434 74.9789ZM81.1074 53.9254C88.5393 53.9254 92.7606 57.1036 92.7606 62.85C92.7606 68.9871 87.8564 72.4059 78.9595 72.4059H67.125V53.9254H81.1074ZM67.125 100.13V79.7557H81.0304C90.7368 79.7557 95.7676 83.1745 95.7676 89.8691C95.7676 96.5637 90.8635 100.128 81.6114 100.128L67.125 100.13Z" fill="url(#paint0_linear_26_199)"/>
<defs>
<linearGradient id="paint0_linear_26_199" x1="79.5405" y1="127.071" x2="79.5405" y2="27.0088" gradientUnits="userSpaceOnUse">
<stop stop-color="#E6ABFF"/>
<stop offset="1" stop-color="#6DC7FF"/>
</linearGradient>
</defs>
</svg>
