<svg xmlns="http://www.w3.org/2000/svg" version="1.1" xmlns:xlink="http://www.w3.org/1999/xlink" xmlns:svgjs="http://svgjs.dev/svgjs" width="1500" height="1500" viewBox="0 0 1500 1500"><rect width="1500" height="1500" fill="#c75c9f"></rect><g transform="matrix(0.37721614485099964,0,0,0.37721614485099964,467.69654951732315,250.3058103975536)"><svg viewBox="0 0 185 327" data-background-color="#c75c9f" preserveAspectRatio="xMidYMid meet" height="2651" width="1500" xmlns="http://www.w3.org/2000/svg" xmlns:xlink="http://www.w3.org/1999/xlink"><g id="tight-bounds" transform="matrix(1,0,0,1,-0.19900484168559274,-0.10000000000002274)"><svg viewBox="0 0 185.39800968337119 327.2" height="327.2" width="185.39800968337119"><g><svg viewBox="0 0 286.88468345813476 506.30893280792867" height="327.2" width="185.39800968337119"><g transform="matrix(1,0,0,1,0,179.10893280792868)"><svg viewBox="0 0 286.88468345813476 327.2" height="327.2" width="286.88468345813476"><g id="textblocktransform"><svg viewBox="0 0 286.88468345813476 327.2" height="327.2" width="286.88468345813476" id="textblock"><g><svg viewBox="0 0 286.88468345813476 327.2" height="327.2" width="286.88468345813476"><g transform="matrix(1,0,0,1,0,0)"><svg width="286.88468345813476" viewBox="1.46 -35.86 31.449999999999996 35.86" height="327.2" data-palette-color="#011434"><path d="M11.99-1.93L11.99-1.93Q10.03-5 8.17-8.83 6.3-12.65 4.79-16.69 3.27-20.73 2.37-24.48 1.46-28.22 1.46-31.18L1.46-31.18Q1.46-31.81 1.73-32.18L1.73-32.18Q2.29-32.96 3.11-33.8 3.93-34.64 5.05-35.57L5.05-35.57Q5.42-35.86 5.74-35.86L5.74-35.86Q6.05-35.86 6.37-35.57L6.37-35.57Q7.52-34.64 8.33-33.8 9.13-32.96 9.69-32.18L9.69-32.18Q9.96-31.81 9.96-31.1L9.96-31.1 9.96-31.2Q9.96-29.13 10.53-26.21 11.11-23.29 12.12-20.08 13.13-16.87 14.44-13.85 15.75-10.84 17.24-8.59L17.24-8.59 17.38-8.59Q19.02-10.84 20.35-13.83 21.68-16.82 22.64-20.02 23.61-23.22 24.13-26.14 24.66-29.05 24.66-31.18L24.66-31.18 24.66-31.1Q24.66-31.81 24.9-32.18L24.9-32.18Q26.07-33.79 28.13-35.57L28.13-35.57Q28.52-35.86 28.81-35.86L28.81-35.86Q29.08-35.86 29.44-35.57L29.44-35.57Q30.54-34.64 31.32-33.8 32.1-32.96 32.67-32.18L32.67-32.18Q32.91-31.79 32.91-31.13L32.91-31.13Q32.91-28.91 32.29-25.99 31.67-23.07 30.59-19.82 29.52-16.58 28.15-13.33 26.78-10.08 25.27-7.14 23.75-4.2 22.24-1.93L22.24-1.93Q20.97 0 18.77 0L18.77 0 15.41 0Q13.21 0 11.99-1.93ZM1.46-31.1L1.46-31.2 1.46-31.18 1.46-31.1ZM32.91-31.13L32.91-31.18 32.91-31.1 32.91-31.13Z" opacity="1" transform="matrix(1,0,0,1,0,0)" fill="#011434" class="wordmark-text-0" data-fill-palette-color="primary" id="text-0"></path></svg></g></svg></g></svg></g></svg></g><g transform="matrix(1,0,0,1,54.794974540503745,0)"><svg viewBox="0 0 177.29473437712727 60.727972807928694" height="60.727972807928694" width="177.29473437712727"><g><svg xmlns="http://www.w3.org/2000/svg" xml:space="preserve" viewBox="5.541 34.772999999999996 88.91600000000001 30.456000000000003" x="0" y="0" height="60.727972807928694" width="177.29473437712727" class="icon-icon-0" data-fill-palette-color="accent" id="icon-0"><path d="M5.541 48.241v1.572h4.074c0.064 7.298 7.162 15.416 16.65 15.416 10.133 0 17.703-7.639 17.703-14.467 0-0.728-0.053-1.476-0.172-2.223 0.081-3.354 2.83-6.06 6.203-6.06s6.122 2.705 6.202 6.06a14 14 0 0 0-0.172 2.223c0 6.828 7.571 14.467 17.702 14.467 9.489 0 16.588-8.117 16.652-15.416h4.074v-1.572h-4.218c-0.53-2.644-2.491-4.596-5.208-5.98l0.028-0.063c-11.061-4.927-22.858-7.425-35.065-7.425-12.203 0-23.998 2.498-35.057 7.425l0.027 0.062c-2.717 1.386-4.678 3.338-5.207 5.981z m44.455-11.896a84.5 84.5 0 0 1 22.993 3.159 46 46 0 0 0-2.402-0.063c-8.042 0-11.834 2.751-13.467 6.118-1.207-2.736-3.942-4.652-7.12-4.652s-5.914 1.916-7.121 4.652c-1.633-3.367-5.424-6.118-13.467-6.118-0.791 0-1.596 0.021-2.402 0.063a84.5 84.5 0 0 1 22.986-3.159" fill="#011434" data-fill-palette-color="accent"></path></svg></g></svg></g><g></g></svg></g><defs></defs></svg><rect width="185.39800968337119" height="327.2" fill="none" stroke="none" visibility="hidden"></rect></g></svg></g></svg>